<svg version="1" xmlns="http://www.w3.org/2000/svg" width="933.333" height="933.333" viewBox="0 0 700.000000 700.000000"><path d="M147.5 1.2C142.7 3 136.3 8 133.6 12c-2.5 3.9-4.1 8.6-5.1 15.5-.3 2.2-.8 4.5-1 5.1-.8 2.6-1.9 20.7-1.9 32.4 0 16.4 1.3 30.4 4 44 1.7 8.2 6.3 24.7 9.1 32.4l1.8 4.8-4.5 9.2c-2.5 5-5 10.6-5.6 12.2-.8 2.3-1.9 3.3-4.2 3.7-4.4.9-10.6 5-13.8 9.2-5.6 7.4-6 10.2-5.9 45.4V258l-3.5 1.7c-16.5 7.7-32.1 27.4-35.5 44.8-.3 1.6-.8 4.1-1.1 5.5-.7 3.8-.7 16.1.1 21.1 1.9 11.8 7.7 24.2 16.1 34.4 7.4 9.1 21.4 17.8 33.4 20.8 6.2 1.6 5.7.6 7.5 16.4 3.5 31.9 12.6 66.4 23.5 88.8 10 20.7 22.2 32.5 36.2 35l3.8.7-9 5.7c-34.5 21.6-66.8 52.4-90.3 85.9C77 634 69 647.5 67.3 652.9c-5.3 17.5 3.4 36.3 20.7 44.5l4.5 2.1h515l6.3-2.9c12.6-5.9 20.3-18 20.4-32.3 0-8.7-1.7-13.8-8.4-24.6-2.6-4.3-4.8-8.3-4.8-8.8s-.4-.9-1-.9c-.5 0-1-.5-1-1 0-.6-.5-1.6-1-2.3-.6-.7-5-6.6-9.8-13.2-22.5-30.6-50.5-57.1-82.9-78.3l-12.3-7.9 3.8-.6c9.5-1.2 20.8-9.8 29.1-22 12.4-18.2 23.9-54.6 29.6-94.2.4-2.2.8-5.1 1-6.5.2-1.4.7-5.4 1-9l.7-6.5 8.8-2.8c24.9-7.9 43-29.5 46.7-55.7 1-7 .2-19.1-1.6-26.2-4.6-17.9-15.6-32.5-31.8-42.3l-6.7-4-.2-32.5c-.1-17.9-.4-33.5-.7-34.6-1-4-4.5-9.9-7.4-12.5-3.4-3.3-10.1-6.9-12.6-6.9-1 0-2.2-1.2-2.8-2.8-.6-1.5-3.1-7.1-5.6-12.5l-4.7-9.8 3.2-9.7c3.4-10.7 4.1-13.1 4.6-15.9.2-1 .9-3.6 1.5-5.8 6.2-23.5 7.1-61.4 2.1-90.3C568.5 10 559.5 1.4 545.9.3c-6.3-.5-7.4-.3-13.1 2.6-4.6 2.3-7.7 4.8-11.3 9.3-9.2 11.3-19.6 22.3-29.1 30.8-6 5.5-17.6 14.1-18.3 13.7-13.1-7.1-32.6-15.1-47-19.2-8.1-2.3-10.9-2.9-19.1-4.4-3.1-.6-3.4-.9-3.5-4.1-.5-13.7-7.1-23.4-18.8-27.4-4-1.3-9.8-1.6-35.5-1.6-17.8 0-32.2.4-34.4 1C305 4 296 15.6 296 26.6c0 5-.2 5.4-2.7 6-23.8 5.4-49.2 14.3-62.3 21.8-2.5 1.4-4.8 2.6-5.1 2.6-.6 0-4.7-3.1-15.9-11.8-5.3-4.1-20-18.9-26-26.2-9-10.8-12.3-14.1-16.5-16.2-4.7-2.5-15.5-3.3-20-1.6zm228.7 26.7c.4.1.7 32 .7 71.1 0 65.8-.2 71-1.7 71.1-.9 0-13.1.1-27 .2-24.6.2-25.2.1-25.3-1.8-.4-9.5-.1-139.4.3-140.1.5-.7 48.1-1.1 53-.5zm-206.7 16c8.1 8.8 16.5 16.8 24.3 23.3 4 3.4 7.1 6.2 7 6.3-11.1 8.4-25.9 23-35.4 34.7-6.7 8.4-6.2 8.3-8 1.3-5.5-22.5-6.4-60.6-1.8-79.8.1-.4.2-1 .3-1.3 0-.4 2 1.8 4.3 4.7 2.4 3 6.5 7.8 9.3 10.8zm375.9-7.3c.3 2.7.8 7.1 1.1 9.9 2 16.5.8 38.7-3.1 59-2.1 10.4-2.6 11.3-4.7 8.2-.8-1.3-2.2-3-2.9-3.8-.7-.8-2.4-2.8-3.6-4.4-4-5.3-19.5-20.6-26.4-26.3-3.8-3-6.8-5.5-6.8-5.7 0-.1 2.6-2.4 5.8-4.9 8.2-6.8 25.7-24.3 32.7-32.9 6.6-8 6.9-8 7.9.9zm-249.9 79l.1 54.4h-4.3c-7.2 0-11.9 2.5-14.4 7.7-3.5 7.2-1.3 14.4 5.4 18 3 1.6 12.9 1.7 143.2 1.7 77 0 140.2.3 140.5.7.4.6.5 79.2.1 80.9-.1.4-429.3.5-432.4.1-.4-.1-.6-18.4-.5-40.9l.3-40.7 18.5-.1c21-.1 23.1-.7 26.6-7.1 5.6-10.2-1.5-20.3-14.3-20.3-2.9 0-5.3-.2-5.3-.5 0-1.3 7.6-15.5 12.5-23.4C197.3 104.4 236.4 75.6 284 63c5.8-1.5 10.7-2.5 11-2.3.3.3.5 25 .5 54.9zm122.6-51.7c28.2 8 50.1 19.4 71.6 37.2 19.3 16.2 38.2 40.9 49 64.1l2.2 4.8H404.1l.1-54.5c0-51 .1-54.5 1.7-54.5 1 0 6.4 1.3 12.2 2.9zM109 291.9c.6 1.6 3.3 4.9 5.9 7.4l4.6 4.4-.2 26.9c-.2 14.8-.3 27.2-.3 27.7 0 1.2-9.1-3.8-12.7-7-4.3-3.9-9.8-12.3-11.7-18-3.3-10.3-2.6-20.5 2.3-30.8 2.7-5.7 8.5-13.5 10.1-13.5.4 0 1.3 1.3 2 2.9zm489.2 2.8c6.6 8.3 10 20.8 8.6 31.5-1.7 13.1-12.4 27.3-23.8 31.6l-2.5 1V303l3.8-3.1c2.1-1.7 4.6-4.8 5.7-7 1.2-2.2 2.5-3.6 3.3-3.3.6.3 2.9 2.6 4.9 5.1zM177 311.6c0 7.3 2.8 17.2 11.3 39.9 4.1 11 8.6 23.8 10.1 28.4 6.6 20.4 16.5 33.3 31.1 40.7 10.1 5 17 6.4 30 6 6.1-.2 12.6-.7 14.5-1.1 8.6-1.6 25.5-8.1 37.9-14.6 7.4-3.8 16.5-7.9 20.1-9 7.4-2.3 21.7-3.2 28.3-1.7 10.1 2.2 13 3.3 27.7 10.7 24.5 12.4 37.8 16.3 54.5 16.2 17.2-.1 29.8-5.2 41.5-17 9-9 12.8-16 19.5-35.1 2.6-7.4 6.9-19.5 9.6-26.8 5.9-16 9.9-30.8 9.9-36.8 0-4.3.1-4.4 3.3-4.5 6.7-.2 26.1.1 26.4.5.7.7.6 53.7-.1 63.1-3.1 41.2-11.7 82.2-22.2 105.3-1.3 2.9-2.4 5.6-2.4 6-.1 1.7-9.7 14.7-12.3 16.6-2.7 2-2.8 2-6.1.2-3.3-1.7-9.2-8.9-12.8-15.4-3.2-5.9-11.4-8-17.8-4.7-5 2.6-6.3 5.7-6.7 15.6-.5 14.5-5 26-18.7 46.9-10.3 15.7-20 23.9-28.2 24-5.5 0-10.1-6.5-16.6-23.5-1.9-4.8-3.1-6.4-6.3-8.3-4.7-2.7-10.1-2.4-14.6.9-3.9 2.8-5 5.2-5.6 11.8-1.1 13.2-5.9 27-12.4 35.2-8.2 10.4-25.6 12-35.8 3.3-8.2-7.1-14.3-21-15.6-35.9-1-12.5-4.6-16.8-14-16.9-7-.1-9.8 2.2-13.1 10.9-6 15.7-11 22.5-16.6 22.5-10.5 0-24.5-15.2-37.5-40.5-6-11.6-9-21.6-9.1-29.8 0-3.1-.1-6.7-.1-7.8-.1-1.2-1.8-3.9-4-6-3.5-3.5-4.4-3.9-8.8-3.9-6.1 0-8.8 1.9-14.3 10-5 7.4-11.5 13-14.3 12.5-5.9-1.1-16.7-18.9-22.7-37.4-2.9-9-8.2-29.1-9.4-35.6-1.7-9.1-3.6-20.6-4.1-25-.4-2.8-.8-5.7-1-6.5-.2-.8-.7-4.9-1-9-.4-4.1-.9-9.3-1.2-11.5-.5-4.8-1.1-65.5-.6-67 .2-.6 6.1-1 15.3-1h15v5.1zm315.2-4.6c.9 0 2.1 1.3 2.6 3 1.6 4.3-.5 11.1-16.2 53.2-7.3 19.9-9.4 23.7-16 29.5-6.3 5.5-12 7.2-23.1 6.8-11.1-.3-21-3.4-35-10.7-18.4-9.5-21-10.7-30-13.4-8-2.4-10.6-2.7-24-2.8-11.7 0-16.4.3-21.5 1.8-3.6 1-7.1 1.8-7.9 1.9-.8 0-8.7 3.7-17.6 8.3-23.2 11.8-35 15.5-47.9 14.9-10.6-.4-16.3-3-22.4-9.9-4.4-5.1-5.7-7.7-12.2-26.5-3.2-9.1-8.3-23.6-11.5-32-4.8-13.2-5.6-16.1-5-19.8l.6-4.2 9.2-.3c6.8-.2 267.4-.1 277.9.2zM219.5 549.1c7.3 12.4 20.9 28.3 29.1 34 1.2.7 3.7 4.9 5.7 9.1 12.7 27.5 38.1 54.4 69.7 73.9 5.5 3.3 10 6.2 10 6.3 0 .2-135.3 0-135.9-.3-.2 0 .1-.7.6-1.4 3.1-4 9.8-26.3 10.9-36.4 1-8.7 1.1-25.8.2-34.5-1.3-11.7-4.5-23.9-10-38.1-1.8-4.5-2.7-8.2-2.2-8.7 1.2-1.2 16.7-10 17.6-10 .4 0 2.3 2.8 4.3 6.1zm275.9-.5c42 23.6 78.7 59.1 104.8 101.1 7.1 11.3 8.1 15 5.3 19-.8 1.1-2.7 2.5-4.2 3-3.4 1-177.7 1-184.8-.1-27.3-4-59.3-16.6-84.1-33.1-10.4-7-26.9-20.7-32.4-27.1-5.7-6.6-10.7-13-11.3-14.4-.4-.8-1.4-2.5-2.2-3.6-1.5-2.1-1.4-2.3 3.6-4.8 2.8-1.5 6.1-3.6 7.2-4.6 2-1.9 2-1.9 4 1.8 6.7 12.6 16.1 21.8 27.2 26.7 7.4 3.3 9.6 3.8 20.1 4.1 15.3.5 27.7-4.2 37.6-14 5-5 12.2-15 13.3-18.7.6-1.7 1.1-1.6 5.7 1.6 16.7 11.5 36.4 7.7 55.2-10.8 6.9-6.8 15.6-18.2 20.2-26.4 1.6-2.9 3.4-5.3 3.9-5.3.6 0 5.5 2.5 10.9 5.6zm-319.2 27.6c11.5 32.5 9.3 63.4-6.6 90.5l-3.4 5.8H98l-2.4-2.5c-4.4-4.4-4-7 2.1-17.2 11.6-19.3 25.7-37.4 42.1-54.2 13-13.3 32.4-29.8 33.6-28.6.5.5 1.7 3.3 2.8 6.2z"/><path d="M342.4 56.8c-10.2 6.5-6.7 23.3 5.3 24.9 8.6 1.1 15.3-4.9 15.3-14 0-4-.5-5.3-3.3-8.4-2.9-3.1-4.1-3.7-8.8-4-4.1-.3-6.1 0-8.5 1.5zM343.2 117.7c-6.5 3.2-9 13.4-4.7 19.6 4.3 6.1 13.3 7.6 19.2 3.1 13.3-10.1.5-30.1-14.5-22.7zM222.1 171.7c-7.7 4-9.8 12.7-5 19.8 6 8.7 19.4 7.2 23.3-2.6 4.7-11.7-7.3-23-18.3-17.2zM161.4 225.9c-2.9 1.3-7.4 6.8-7.5 9.4-.6 7.9 1 11.4 6.4 14.7 7.7 4.7 18.5-.2 20.2-9.1.7-3.8-1.2-9.3-4.4-12.3-2.3-2.2-4.2-3-7.8-3.2-2.6-.2-5.7 0-6.9.5zM222.4 225.9c-2.9 1.3-7.4 6.8-7.5 9.4-.5 7.8 1.1 11.5 6.4 14.7 9.9 6.1 22.3-2.9 19.8-14.2-1.4-6.1-5.8-10-11.8-10.4-2.6-.2-5.7 0-6.9.5zM281.4 226.8c-6.3 4-8.1 13-3.7 19 6.6 8.9 18.8 7.9 23.2-1.9 2.4-5.2 1.2-11.2-2.9-15.3-3.8-3.9-11.9-4.7-16.6-1.8zM342.3 227.1c-4.3 2.7-6.6 7.8-5.8 13.1.8 5.1 3 8.1 7.3 10.2 9.4 4.6 19.5-2 19.4-12.7-.2-10-12.2-16.2-20.9-10.6zM403.4 226.9c-6.2 3.8-8.1 13.6-3.7 19.5 7.7 10.4 24.5 4.9 24.5-7.9 0-10.4-11.9-17-20.8-11.6zM464.3 227.1c-8.7 5.5-7.9 18.9 1.4 23.4 9.1 4.4 19.3-1.8 19.3-12 0-10.6-11.8-17.1-20.7-11.4zM524.8 227.5c-8.1 5.5-7.4 18 1.3 22.7 9.4 5 19.9-1.3 20.1-12.2.1-10.4-12.4-16.6-21.4-10.5zM306.7 424.5c-4.6 1.6-6.4 3-8.3 6.6-2 3.9-1.8 7.9.8 14.6 5.8 15.9 19.7 28.6 36.3 33.6 6.5 1.9 20.7 2.1 27 .4 18.8-5.1 33.9-19.7 38.6-37.2 1.9-7 1.2-10.5-2.7-14.6-4.3-4.4-11.2-5.3-16.6-2.1-2.6 1.5-3.6 3-7.7 12.2-6.2 13.7-23.1 19.6-36.5 12.9-6.1-3-10.4-8-13.6-16-3.8-9.2-10-12.9-17.3-10.4zM275 322.7c-12.1 6-16.7 25.5-9.4 40 8.7 17.3 27.5 15.8 34.5-2.6 8.3-22.3-7.6-46.1-25.1-37.4zM412.6 321.5c-5.1 1.8-9.1 5.8-12.3 12.4-6.5 13.2-1.4 33.4 9.8 39.2 14.1 7.1 28.4-7.2 27.4-27.3-.8-16.9-12.7-28.5-24.9-24.3z"/></svg>