<svg xmlns="http://www.w3.org/2000/svg" width="256" height="256" viewBox="0 0 700 700">
    <path d="M391.2 255.6 299 347.9l20.6 20.6 20.6 20.6 46.1-46.1 92.5-92.5 46.3-46.2-19.4-19.4c-10.6-10.7-20-19.9-20.8-20.5-1.1-.9-18.9 16.4-93.7 91.2z"/>
    <path d="M494.5 317c-84.7 84.7-154.3 153.9-154.7 153.8-.4-.2-27.9-27.4-61.1-60.6l-60.4-60.3-20.6 20.7-20.7 20.6 81.6 81.5 81.6 81.6 174.9-174.9c96.2-96.2 174.9-175 174.9-175.1 0-.2-35.9-35.9-39.2-39l-2.4-2.2L494.5 317z"/>
    <path d="M32.7 370.6 12 391.2l81.5 81.5 81.5 81.6 20.4-20.4c11.2-11.2 20.2-20.8 19.9-21.3-.2-.6-36.7-37.5-81.1-81.9l-80.7-80.8-20.8 20.7z"/>
</svg>