<svg version="1.1" xmlns="http://www.w3.org/2000/svg" xmlns:xlink="http://www.w3.org/1999/xlink" viewBox="0 0 50 200">
  <symbol id="info-svg" fill="currentColor" viewBox="0 0 24 24">
    <rect x="11.1" y="10.4" width="1.8" height="7.4"/>
    <path d="M12,8.4c-0.6,0-1.2-0.5-1.2-1.2s0.6-1.1,1.2-1.1s1.2,0.5,1.2,1.2S12.6,8.4,12,8.4z"/>
    <path d="M3.5,3.5C5.8,1.2,8.8,0,12,0s6.2,1.2,8.5,3.5S24,8.7,24,12s-1.2,6.2-3.5,8.5S15.2,24,12,24s-6.2-1.2-8.5-3.5S0,15.2,0,12 S1.2,5.7,3.5,3.5z M12,22.1c5.6,0,10.2-4.5,10.2-10.1c0-5.7-4.6-10.2-10.2-10.2S1.8,6.4,1.8,12S6.4,22.1,12,22.1z"/>
  </symbol>

  <symbol id="github-svg" fill="currentColor" viewBox="0 0 24 24">
    <path d="M12,0c6.6,0,12,5.4,12,12.1c0,5.3-3.4,9.8-8.2,11.4c-0.6,0-0.8-0.3-0.8-0.6s0-1,0-2c3.3,0.6,4-1.7,4-1.7 c0.5-1.4,1.3-1.8,1.3-1.8c1.1-0.7-0.1-0.7-0.1-0.7c-1.2,0.1-1.8,1.2-1.8,1.2c-1.1,1.8-2.8,1.3-3.5,1c-0.1-0.8-0.4-1.3-0.8-1.6 c2.7-0.3,5.5-1.3,5.5-5.9c0-1.3-0.5-2.4-1.2-3.2c0.1-0.3,0.5-1.5-0.1-3.2c0,0-1-0.3-3.3,1.2c-1-0.3-2-0.4-3-0.4s-2,0.1-3,0.4 C6.7,4.6,5.7,5,5.7,5C5.1,6.7,5.5,7.9,5.6,8.2C4.8,9,4.4,10.1,4.4,11.4c0,4.6,2.8,5.6,5.5,5.9C9.4,17.7,9,18.4,9,19.5 c0,1.6,0,2.9,0,3.3c0,0.3-0.2,0.7-0.8,0.6C3.4,21.8,0,17.3,0,12C-0.1,5.3,5.3,0,12,0"/>
  </symbol>

  <symbol id="sun-svg" fill="currentColor" viewBox="0 0 24 24">
    <path d="M12,6c-3.3,0-6,2.7-6,6c0,3.3,2.7,6,6,6s6-2.7,6-6C18,8.7,15.3,6,12,6z M12,16c-2.2,0-4-1.8-4-4c0-2.2,1.8-4,4-4s4,1.8,4,4 C16,14.2,14.2,16,12,16z"/>
    <g>
      <path d="M12,20c-0.6,0-1,0.4-1,1v2c0,0.6,0.4,1,1,1s1-0.4,1-1v-2C13,20.4,12.6,20,12,20z"/>
      <path d="M12,0c-0.6,0-1,0.4-1,1v2c0,0.6,0.4,1,1,1s1-0.4,1-1V1C13,0.4,12.6,0,12,0z"/>
      <path d="M5.6,17.4c-0.3,0-0.5,0.1-0.7,0.3l-1.4,1.4c-0.4,0.4-0.4,1,0,1.4s1,0.4,1.4,0l1.4-1.4c0.4-0.4,0.4-1,0-1.4 C6.2,17.5,5.9,17.4,5.6,17.4z"/>
      <path d="M19.8,3.2c-0.3,0-0.5,0.1-0.7,0.3l-1.4,1.4c-0.4,0.4-0.4,1,0,1.4s1,0.4,1.4,0l1.4-1.4c0.4-0.4,0.4-1,0-1.4 C20.3,3.3,20,3.2,19.8,3.2z"/>
      <path d="M3,11H1c-0.6,0-1,0.4-1,1s0.4,1,1,1h2c0.6,0,1-0.4,1-1S3.6,11,3,11z"/>
      <path d="M23,11h-2c-0.6,0-1,0.4-1,1s0.4,1,1,1h2c0.6,0,1-0.4,1-1S23.6,11,23,11z"/>
      <path d="M4.2,3.2c-0.3,0-0.5,0.1-0.7,0.3c-0.4,0.4-0.4,1,0,1.4l1.4,1.4c0.4,0.4,1,0.4,1.4,0s0.4-1,0-1.4L4.9,3.5 C4.7,3.3,4.5,3.2,4.2,3.2z"/>
      <path d="M18.4,17.4c-0.3,0-0.5,0.1-0.7,0.3c-0.4,0.4-0.4,1,0,1.4l1.4,1.4c0.4,0.4,1,0.4,1.4,0s0.4-1,0-1.4l-1.4-1.4 C18.9,17.5,18.6,17.4,18.4,17.4z"/>
    </g>
  </symbol>

  <symbol id="moon-svg" fill="currentColor" viewBox="0 0 24 24">
    <path d="M12,24c0.4,0,0.7,0,1.1,0c6.6-0.6,11.4-6.5,10.8-13.1C23.4,5,18.9,0.5,13.1,0c-0.5,0-1,0.2-1.2,0.6s-0.2,1,0.1,1.3 c2.4,3.4,1.7,7.9-1.6,10.3c-2.5,1.9-6,1.9-8.5,0c-0.4-0.2-0.8-0.4-1.3-0.1C0.2,12.3,0,12.8,0,13.3c0.2,3.2,1.8,6.1,4.3,8.2 C6.6,23,9.2,24,12,24z M15.4,2.9c3.5,1.2,6,4.3,6.3,8.2c0.5,5.2-3.4,9.9-8.7,10.4c-2.5,0.1-5.1-0.5-7-2.2c-1.3-1.1-2.3-2.5-2.9-4.1 c3,1.1,6.4,0.6,9-1.3C15.5,11.3,16.8,6.9,15.4,2.9z"/>
  </symbol>

  <symbol id="right-svg" fill="currentColor" viewBox="0 0 24 22">
    <path d="M13,22l-2.8-2.8l6.2-6.2H0V9h16.4l-6.2-6.2L13,0l11,11L13,22z"/>
  </symbol>

  <symbol id="down-svg" fill="currentColor" viewBox="0 0 24 14">
    <path d="M12,14c0.5,0,0.9-0.2,1.2-0.5L23.5,2.9c0.7-0.7,0.7-1.7,0-2.4c-0.7-0.7-1.7-0.7-2.4,0L12,9.9L2.9,0.5 c-0.7-0.7-1.7-0.7-2.4,0s-0.7,1.7,0,2.4l10.3,10.6C11.1,13.9,11.5,14,12,14z"/>
  </symbol>

  <symbol id="search-svg" fill="currentColor" viewBox="0 0 24 24">
    <path d="M22,24l2-2l-6.8-6.9h-1.1l-0.4-0.4c5-5.6,0.8-14.8-6.8-14.7C4,0,0,4,0,8.9c-0.1,7.5,9,11.7,14.7,6.8l0.4,0.4v1L22,24z M8.9,15.1c-3.4,0-6.2-2.8-6.2-6.2c0.3-8.2,12.1-8.2,12.4,0C15.1,12.3,12.4,15.1,8.9,15.1z"/>
  </symbol>

  <symbol id="input-svg" viewBox="0 0 24 24" fill="none" stroke="currentColor" stroke-width="2" stroke-miterlimit="10">
    <path d="M17.1,17.1L22,22L17.1,17.1c3.4-3.4,3.4-9,0-12.6c-3.4-3.4-9-3.4-12.6,0c-3.4,3.4-3.4,9,0,12.6 C8.1,20.7,13.7,20.7,17.1,17.1z"/>
  </symbol>

  <symbol id="copy-svg" viewBox="0 0 24 29" fill="none" stroke="currentColor" stroke-width="2" stroke-miterlimit="10">
    <path d="M16.3,4.8h2.8C20.7,4.8,22,6,22,7.6v16.6c0,1.5-1.3,2.8-2.9,2.8H4.9C3.3,27,2,25.8,2,24.2V7.6 c0-1.5,1.3-2.8,2.9-2.8h2.9 M16.3,4.8c0,1.5-1.3,2.8-2.9,2.8h-2.9C9,7.6,7.7,6.4,7.7,4.8 M16.3,4.8C16.3,3.3,15,2,13.4,2h-2.9 C9,2,7.7,3.2,7.7,4.8"/>
  </symbol>

  <symbol id="close-svg" viewBox="0 0 24 24" stroke="currentColor" stroke-width="2" stroke-miterlimit="10">
    <path d="M12,12l10,10L12,12L22,2L12,12z M12,12L2,22L12,12L2,2L12,12z"/>
  </symbol>

  <symbol id="plus-svg" viewBox="0 0 24 24" stroke="currentColor" stroke-width="2" stroke-miterlimit="10">
    <path d="M12 0v24" />
    <path d="M0 12h24" />
  </symbol>

  <symbol id="resize-svg" viewBox="0 0 24 24" opacity="0.65" stroke="currentColor" stroke-width="2" stroke-miterlimit="10">
    <path d="m4.7 21.2 16-16"/>
    <path d="m13.7 21.2 7-7"/>
  </symbol>

  <symbol id="circle-svg" viewBox="0 0 24 24" fill="none" stroke="currentColor" stroke-width="2" stroke-miterlimit="10">
    <circle id="circle-frame-svg" cx="12" cy="12" r="9"/>
  </symbol>

  <symbol id="circle-x-svg" viewBox="0 0 24 24" fill="currentColor" stroke="currentColor" stroke-width="2" stroke-miterlimit="10">
    <use xlink:href="#circle-frame-svg" fill="none"/>
    <circle cx="12" cy="12" r="5"/>
  </symbol>

  <symbol id="square-svg" viewBox="0 0 24 24" fill="none" stroke="currentColor" stroke-width="2" stroke-miterlimit="10">
    <path id="square-frame-svg" d="M19 21H5c-1.1 0-2-.9-2-2V5c0-1.1.9-2 2-2h14c1.1 0 2 .9 2 2v14c0 1.1-.9 2-2 2z"/>
  </symbol>

  <symbol id="square-x-svg" viewBox="0 0 24 24" fill="currentColor" stroke="currentColor" stroke-width="2" stroke-miterlimit="10">
    <use xlink:href="#square-frame-svg" fill="none"/>
    <path d="M15.3 17H8.7c-.9 0-1.7-.8-1.7-1.7V8.7C7 7.8 7.8 7 8.7 7h6.7c.8 0 1.6.8 1.6 1.7v6.7c0 .8-.8 1.6-1.7 1.6z"/>
  </symbol>

  <!-- View list  -->
  <view id="info-view" viewBox="0 0 24 24" />
  <view id="github-view" viewBox="0 25 24 24" />
  <view id="sun-view" viewBox="0 50 24 24" />
  <view id="moon-view" viewBox="0 77 24 24" />
  <view id="right-view" viewBox="0 105 24 22" />
  <view id="down-view" viewBox="0 130 24 14" />
  <view id="search-view" viewBox="0 150 24 24" />
  <!-- Next column  -->
  <view id="circle-view" viewBox="30 0 24 24" />
  <view id="circle-x-view" viewBox="30 25 24 24" />
  <view id="input-view" viewBox="30 50 24 24" />
  <view id="copy-view" viewBox="30 75 24 29" />
  <view id="close-view" viewBox="30 105 24 24" />
  <view id="plus-view" viewBox="30 130 24 24" />
  <view id="resize-view" viewBox="30 155 24 24" />
  <!-- Next column  -->
  <view id="square-view" viewBox="60 0 24 24" />
  <view id="square-x-view" viewBox="60 25 24 24" />

  <!-- Use list  -->
  <use xlink:href="#info-svg" x="0" y="0" width="24" height="24" />
  <use xlink:href="#github-svg" x="0" y="25" width="24" height="24" />
  <use xlink:href="#sun-svg" x="0" y="50" width="24" height="24" />
  <use xlink:href="#moon-svg" x="0" y="77" width="24" height="24" />
  <use xlink:href="#right-svg" x="0" y="105" width="24" height="22" />
  <use xlink:href="#down-svg" x="0" y="130" width="24" height="14" />
  <use xlink:href="#search-svg" x="0" y="150" width="24" height="24" />
  <!-- Next column  -->
  <use xlink:href="#circle-svg" x="30" y="0" width="24" height="24" />
  <use xlink:href="#circle-x-svg" x="30" y="25" width="24" height="24" />
  <use xlink:href="#input-svg" x="30" y="50" width="24" height="24" />
  <use xlink:href="#copy-svg" x="30" y="75" width="24" height="29" />
  <use xlink:href="#close-svg" x="30" y="105" width="24" height="24" />
  <use xlink:href="#plus-svg" x="30" y="130" width="24" height="24" />
  <use xlink:href="#resize-svg" x="30" y="155" width="24" height="24" />
  <!-- Next column  -->
  <use xlink:href="#square-svg" x="60" y="0" width="24" height="24" />
  <use xlink:href="#square-x-svg" x="60" y="25" width="24" height="24" />
</svg>
