<?xml version="1.0" encoding="utf-8"?>
<!-- Generator: Adobe Illustrator 23.0.1, SVG Export Plug-In . SVG Version: 6.00 Build 0)  -->
<svg version="1.1" id="goodvar" xmlns="http://www.w3.org/2000/svg" xmlns:xlink="http://www.w3.org/1999/xlink" x="0px" y="0px"
	 viewBox="0 0 256 256" style="enable-background:new 0 0 256 256;" xml:space="preserve">
<style type="text/css">
	.st0{fill-rule:evenodd;clip-rule:evenodd;fill:#FFDCD5;}
	.st1{fill-rule:evenodd;clip-rule:evenodd;fill:#8690AF;}
	.st2{opacity:0.8;}
	.st3{fill:#187DE4;}
</style>
<path class="st0" d="M212.8,102.5c0,2.7-2.3,5-5,5h0c0,0.9,0,1.8,0,2.8v8c0.3,6.3,0.1,12.9-0.3,19.2h0.3c11,0,20-9,20-20
	c0-9.3-6.4-17.1-15-19.4L212.8,102.5z"/>
<path class="st1" d="M207.8,118.3v-8c0-0.9,0-1.8,0-2.8h-23.7c1.4,2.6,2.3,4.9,2.5,6.4c0.5,3.7-6.3,19.4-7.7,24.2
	c-3.8,12-15,19.6-36.7,7.1c0,0-6-3.9-14.5-3.9c-8.5,0-14.5,3.9-14.5,3.9c-13.5,7.8-30.8,11.3-36.7-7.1c-2.8-9.6-8.3-20.1-7.7-24.2
	c0.2-1.5,1.1-3.8,2.5-6.4H47.8c0,0.9,0,1.8,0,2.8v8c-0.3,6.3-0.1,12.9,0.3,19.2c2.6,35.1,15.8,66,29.7,42c-0.4,3.1,0.7,7.8,2.7,12.5
	c3.3,7.6,9,15.6,14.8,18.6c5.8,3,11.8,1.1,15.6-11.2c0,5.9,3.2,21.7,16.8,21.7c13.6,0,16.8-15.8,16.8-21.7
	c7.6,24.6,23.9,7.8,30.4-7.4c2.1-4.8,3.2-9.4,2.7-12.5c13.9,24.1,27.1-6.9,29.7-42C207.9,131.2,208.1,124.7,207.8,118.3L207.8,118.3
	z"/>
<g>
	<path class="st0" d="M179,138.1c1.4-4.8,8.2-20.5,7.7-24.2c-0.2-1.5-1.1-3.8-2.5-6.4H71.5c-1.4,2.6-2.3,4.9-2.5,6.4
		c-0.6,4.1,4.9,14.6,7.7,24.2c5.8,18.5,23.2,14.9,36.7,7.1c0,0,6-3.9,14.5-3.9c8.5,0,14.5,3.9,14.5,3.9
		C163.9,157.8,175.2,150.1,179,138.1z"/>
	<path class="st0" d="M48.1,137.5c-0.5-6.4-0.6-12.9-0.3-19.2v-8c0-0.9,0-1.8,0-2.8h0c-2.7,0-5-2.2-5-5v-4.4
		c-8.6,2.2-15,10.1-15,19.4c0,11,9,20,20,20H48.1z"/>
	<path class="st0" d="M64.5,201c-14.2,9.5-26.4,22.2-35.3,37.4c-3.7,5.4,0.1,12.9,6.8,12.9l26.4,0C75.8,234.9,72.5,214.4,64.5,201z"
		/>
</g>
<path class="st0" d="M95.4,210.7c6.4,19.4,30.9,37,58.4,40.6l65.8,0c6.3,0,10.3-6.8,7.1-12.4c-12.1-21-30.3-37.2-51.7-46.9
	c-6.5,15.2-22.8,32-30.4,7.4c0,5.9-3.2,21.7-16.8,21.7c-13.6,0-16.8-15.8-16.8-21.7C107.2,211.8,101.2,213.7,95.4,210.7L95.4,210.7z
	"/>
<g class="st2">
	<path class="st3" d="M207.2,67.2h-2l0,0l0,0c-1.7-4.7-3.8-9.2-6.1-13.4l0,0c3.9-9.3,6-19.5,6-30.2c0-1.5-0.8-14.6-1.4-14.5
		C203,4.9,197.6,3.5,195,7c-6,7.9-13.3,14.6-21.4,19.9l0,0c-8.8-5.4-19-9.1-30.8-10.8v-6c0-2.7-2.3-5-5-5H118c-2.7,0-5,2.3-5,5v6
		l0,0l0,0c-4.6,0.6-10.2,1.8-16.6,4c-5.2,1.8-9.9,4.1-14.3,6.8l0,0c-8-5.3-15.3-12-21.3-19.9c-2.5-3.5-8-2.3-8.8,2
		c-0.9,4.7-1.4,9.7-1.4,14.5c0,10.7,2.2,20.9,6,30.2l0,0c-2.4,4.2-4.4,8.7-6.1,13.4l0,0h-2c-2.8,0-5,2.2-5,5v25.6v4.4
		c0,2.8,2.3,5,5,5l0,0H72h111.6h23.5l0,0c2.7,0,5-2.3,5-5v-4.4V72.2C212.2,69.5,210,67.2,207.2,67.2z"/>
	<path class="st3" d="M95.8,210.4c-5.7-3-11.4-11-14.7-18.6c-5.5,2.5-10.9,5.5-16,8.9c7.9,13.4,11.1,33.9-2,50.3h90.4
		C126.5,247.3,102.2,229.8,95.8,210.4z"/>
</g>
<g>
	<path d="M230.2,236.1c-10.4-18.1-25.1-32.9-42.8-43.3c1.1,0,2.1-0.2,3.1-0.5c11.9-3.5,18.7-27,21-50.4c11.7-2,20.5-12.3,20.5-24.6
		c0-10-5.9-19-14.9-22.9V72.2c0-5-3.7-9.1-8.4-9.9c-1.2-3.1-2.6-6.1-4.1-8.9c5.5-14.4,6.9-30,4.1-45.3c-0.7-4-3.7-7-7.5-7.9
		c-3.9-0.9-7.8,0.6-10.1,3.8c-5.1,6.5-10.9,12.2-17.5,16.9c-7.7-4.3-16.2-7.4-25.7-9.1V10c0-5.5-4.5-10-9.9-10h-19.9
		c-5.4,0-9.9,4.5-9.9,10v1.8c-9.3,1.8-17.9,4.8-25.7,9.1C75.8,16.2,69.8,10.6,64.9,4c-2.4-3.2-6.3-4.7-10.1-3.8c-3.8,1-6.8,4-7.5,8
		c-2.9,15.3-1.5,30.9,4.1,45.3c-1.5,2.8-2.9,5.8-4.1,8.9c-4.8,0.7-8.4,4.9-8.4,9.9v22.1c-9,3.8-14.9,12.8-14.9,22.8
		c0,12.3,8.9,22.6,20.5,24.6c2.3,23.4,9.1,46.9,21,50.4c0.9,0.3,2,0.4,3.1,0.5c-17.6,10.3-32,24.8-42.4,42.7
		c-2.7,4-2.9,9.2-0.6,13.5c2.3,4.4,6.7,7.1,11.6,7.1H219l0,0c4.8,0,9-2.5,11.4-6.6C232.6,245.2,232.6,240.2,230.2,236.1L230.2,236.1
		z M222.1,117.2c0,6.5-4.2,12.1-9.9,14.1c0.2-4.7,0.2-9.2,0-13.5v-7c2-1.2,3.6-3.1,4.4-5.3C220,108.4,222.1,112.6,222.1,117.2z
		 M198.9,10.2C198.9,10.2,198.9,10.1,198.9,10.2c2.1,10.8,1.7,21.9-1.1,32.4c-3.7-5-7.8-9.4-12.4-13.3c-1-0.8-2-1.6-3.1-2.4
		C188.5,22.1,194,16.5,198.9,10.2L198.9,10.2z M197.9,62.2h-50.1V22.1C170.8,26.9,188,40.6,197.9,62.2z M137.8,10.1v52.2H118V10.1
		H137.8z M108.1,62.2h-2.5c-2.8,0-5,2.2-5,5c0,2.8,2.2,5,5,5h101.6v30l0,0H48.7v-30h12.4c2.8,0,5-2.2,5-5s-2.2-5-5-5H58
		c9.9-21.6,27-35.3,50.1-40.2V62.2z M181.3,114.2c-0.1,2.3-3.3,10.7-4.8,14.7c-1.2,3.1-2.2,5.7-2.7,7.4c-1,3.2-3.2,7.5-7.5,9.2
		c-5.2,2-12.6,0.3-21.5-4.9c-1.1-0.7-7.8-4.6-16.9-4.6s-15.8,3.9-16.9,4.6c-8.7,5.1-16.6,6.8-21.8,4.8c-3.4-1.3-5.7-4.3-7.2-9.1
		c-1.2-4-2.7-8.1-4.1-11.7c-1.4-3.7-3.4-8.8-3.4-10.3c0.1-0.3,0.3-1,0.7-2.1h105.3C181,113.2,181.2,113.9,181.3,114.2L181.3,114.2z
		 M57,10.1C57,10.1,57,10.2,57,10.1c4.9,6.4,10.4,12,16.6,16.7c-1,0.8-2.1,1.6-3,2.4c-4.7,3.9-8.7,8.4-12.4,13.3
		C55.3,32.1,54.9,21,57,10.1z M33.8,117.2c0-4.6,2.1-8.9,5.5-11.7c0.8,2.2,2.4,4.1,4.4,5.3v7c-0.2,4.2-0.2,8.8,0,13.5
		C38,129.3,33.8,123.8,33.8,117.2L33.8,117.2z M68.2,182.7c-1.9-0.6-6.5-5.6-10.3-20.8c-2-7.7-3.3-16.4-4-25.2c0,0,0,0,0-0.1
		c-0.5-6.2-0.6-12.4-0.3-18.5c0-0.1,0-0.1,0-0.2v-5.8h11.3c0,0.2-0.1,0.5-0.1,0.7c-0.5,3.6,1.1,8,3.9,15.4c1.4,3.6,2.9,7.4,3.9,10.9
		v0.1c2.5,7.8,6.8,13,13.1,15.5c10.9,4.3,23.8-1.6,30.4-5.5c0.1,0,0.1-0.1,0.2-0.1c0,0,5-3.1,11.7-3.1s11.6,3.1,11.7,3.1
		s0.1,0.1,0.2,0.1c8.1,4.7,15.4,7.1,21.8,7.1c3,0,5.7-0.5,8.3-1.5c6.3-2.5,11-7.9,13.4-15.5v-0.1c0.4-1.3,1.4-4,2.4-6.8
		c4.2-11.1,5.8-16.2,5.4-19.5c0-0.2-0.1-0.5-0.1-0.7h11.2v5.8c0,0.1,0,0.1,0,0.2c0.3,6,0.1,12.3-0.3,18.5c0,0,0,0,0,0.1
		c-0.7,8.8-2,17.5-4,25.2c-3.9,15.1-8.4,20.2-10.3,20.8c-1.1,0.3-3.4-1.4-5.9-6c-1.2-2.1-3.7-3-5.8-2.2c-2.3,0.8-3.7,3-3.3,5.4
		c0.7,5.2-2.8,11.5-5.4,15.7c-2.4,3.9-6.1,9.9-11,11c-3.4,0.7-5.7-5.3-6.8-8.9c-0.7-2.4-3.1-3.8-5.4-3.5c-2.4,0.4-4.3,2.5-4.3,4.9
		c0,1.9-0.6,6.7-2.7,10.7c-2.2,4-5.1,6-9,6s-6.8-2-9-6s-2.7-8.7-2.7-10.7c0-2.5-1.8-4.6-4.3-4.9c-2.5-0.4-4.8,1.1-5.4,3.5
		c-1.1,3.6-3.5,9.6-6.8,8.9c-5-1.1-8.8-7.3-11.2-11.3c-2.5-4.2-5.8-10.3-5.2-15.4c0.3-2.4-1.1-4.6-3.3-5.4c-2.3-0.8-4.7,0.2-5.8,2.2
		C71.6,181.3,69.3,183,68.2,182.7L68.2,182.7z M78.9,198.4c0.4,0.7,0.7,1.3,1.1,2c2.3,3.9,6.4,9.9,11.8,13.4
		c4.9,12.8,16.2,24.3,30.8,32.2H72.4c7.5-15.1,5.1-31.6-0.6-43.6C74.1,201,76.5,199.7,78.9,198.4z M37.1,246c-1.8,0-2.6-1.2-2.9-1.7
		c-0.2-0.4-0.9-1.9,0.2-3.4c0.1-0.1,0.1-0.2,0.2-0.3c7.4-12.8,17.2-23.8,28.8-32.6c4.7,10.8,6.1,25.5-2.7,37.9L37.1,246z
		 M221.7,244.3c-0.3,0.5-1.1,1.6-2.8,1.6l0,0h-64.8c-21.2-2.9-41.2-15.1-50-29.8c1.8-0.5,3.7-1.5,5.4-3.3c3.2,7,9.1,12.9,18.5,12.9
		c9.5,0,15.4-6,18.5-12.9c4.3,4.1,8.8,4.1,11.8,3.5c8.2-1.8,14.6-10.8,17.6-16c0.4-0.6,0.7-1.3,1.1-2c18.7,9.6,34.1,24.3,44.6,42.7
		C222.5,242.6,221.9,243.9,221.7,244.3L221.7,244.3z"/>
	<ellipse cx="152.7" cy="127.2" rx="7.4" ry="10"/>
	<ellipse cx="103.2" cy="127.2" rx="7.4" ry="10"/>
	<path d="M127.9,176c8.9,0,16.8-6.1,19.1-14.8c0.7-2.7-0.9-5.4-3.5-6.1c-2.7-0.7-5.4,0.9-6,3.5c-1.2,4.4-5.1,7.4-9.6,7.4
		c-4.6,0-8.4-3-9.6-7.4c-0.7-2.7-3.5-4.3-6-3.5c-2.7,0.7-4.3,3.5-3.5,6.1C111.1,169.9,119,176,127.9,176z"/>
	<path d="M127.9,92.2L127.9,92.2c2.8,0,5-2.2,5-5s-2.2-5-5-5s-5,2.2-5,5S125.2,92.2,127.9,92.2L127.9,92.2z"/>
	<path d="M105.6,92.2L105.6,92.2c2.8,0,5-2.2,5-5s-2.2-5-5-5s-5,2.2-5,5S102.9,92.2,105.6,92.2z"/>
	<path d="M83.4,82.2c-2.8,0-5,2.2-5,5s2.2,5,5,5l0,0c2.8,0,5-2.2,5-5C88.3,84.5,86.1,82.2,83.4,82.2z"/>
	<path d="M61.1,82.2c-2.8,0-5,2.2-5,5s2.2,5,5,5l0,0c2.8,0,5-2.2,5-5C66,84.5,63.8,82.2,61.1,82.2z"/>
	<path d="M150.2,92.2L150.2,92.2c2.8,0,5-2.2,5-5s-2.2-5-5-5s-5,2.2-5,5S147.5,92.2,150.2,92.2z"/>
	<path d="M172.5,92.2L172.5,92.2c2.8,0,5-2.2,5-5s-2.2-5-5-5s-5,2.2-5,5S169.8,92.2,172.5,92.2z"/>
	<path d="M194.8,92.2L194.8,92.2c2.8,0,5-2.2,5-5s-2.2-5-5-5s-5,2.2-5,5S192,92.2,194.8,92.2z"/>
	<path d="M127.9,52.4L127.9,52.4c2.8,0,5-2.2,5-5s-2.2-5-5-5s-5,2.2-5,5S125.2,52.4,127.9,52.4L127.9,52.4z"/>
	<path d="M127.9,30L127.9,30c2.8,0,5-2.2,5-5s-2.2-5-5-5s-5,2.2-5,5S125.2,30,127.9,30L127.9,30z"/>
	<path d="M83.4,72.2c2.8,0,5-2.2,5-5s-2.2-5-5-5l0,0c-2.8,0-5,2.2-5,5S80.6,72.2,83.4,72.2z"/>
</g>
</svg>
