<svg version="1.1" xmlns="http://www.w3.org/2000/svg" xmlns:xlink="http://www.w3.org/1999/xlink" width="256" height="7424" viewBox="0 0 256 7424" fill="#2D2D2D">
	<symbol id="alert" viewBox="0 0 256 256">
		<path d="M251.7,195.2l-96-166.5c-5.8-10-16.1-16-27.7-16c-11.6,0-21.9,6-27.7,16l-96,166.5c-5.8,10-5.8,22,0,32 c5.8,10,16.1,16,27.7,16H224c11.6,0,21.9-6,27.7-16C257.4,217.2,257.4,205.2,251.7,195.2z M234.7,217.4c-2.2,3.9-6.2,6.2-10.7,6.2 H32c-4.5,0-8.5-2.3-10.7-6.2c-2.2-3.9-2.2-8.5,0-12.4l96-166.5c2.2-3.9,6.2-6.2,10.7-6.2c4.5,0,8.5,2.3,10.7,6.2l96,166.5 C236.9,208.9,236.9,213.5,234.7,217.4z"/>
		<rect x="118.2" y="86.3" width="19.6" height="78.5"/>
		<path d="M128,174.7c-6.8,0-12.3,5.5-12.3,12.3s5.5,12.3,12.3,12.3s12.3-5.5,12.3-12.3S134.8,174.7,128,174.7z"/>
	</symbol>
	<symbol id="info" viewBox="0 0 256 256">
		<path d="M218.5,37.5C194.3,13.3,162.2,0,128,0C93.8,0,61.7,13.3,37.5,37.5C13.3,61.7,0,93.8,0,128c0,34.2,13.3,66.3,37.5,90.5 C61.7,242.7,93.8,256,128,256c34.2,0,66.3-13.3,90.5-37.5c24.2-24.2,37.5-56.3,37.5-90.5C256,93.8,242.7,61.7,218.5,37.5z M128,236.6c-59.9,0-108.6-48.7-108.6-108.6C19.4,68.1,68.1,19.4,128,19.4c59.9,0,108.6,48.7,108.6,108.6 C236.6,187.9,187.9,236.6,128,236.6z"/>
		<rect x="118.2" y="106" width="19.6" height="78.5"/>
		<path d="M128,96.1c6.8,0,12.3-5.5,12.3-12.3s-5.5-12.3-12.3-12.3c-6.8,0-12.3,5.5-12.3,12.3S121.2,96.1,128,96.1z"/>
	</symbol>
	<symbol id="checked" viewBox="0 0 256 256">
		<polygon points="85.1,221.9 256,51.2 238.6,34.1 85.1,187.4 17.1,119.5 0,136.7 "/>
	</symbol>
	<symbol id="close" viewBox="0 0 256 256">
		<path d="M142.2 128L253.1 17.1c3.9-3.9 3.9-10.2 0-14.1s-10.3-3.9-14.2 0L128 113.9 17 3C13.1-.9 6.8-.9 2.9 3s-3.9 10.2 0 14.1L113.8 128 2.9 238.9c-3.9 3.9-3.9 10.2 0 14.1 2 1.9 4.5 2.9 7.1 2.9s5.1-1 7.1-2.9l111-110.9 111 110.9c2 1.9 4.5 2.9 7.1 2.9s5.1-1 7.1-2.9c3.9-3.9 3.9-10.2 0-14.1L142.2 128z"></path>
	</symbol>
	<symbol id="copy" viewBox="0 0 256 256">
		<path d="M183.4 54h-70.9c-5.5 0-10 4.5-10 10s4.5 10 10 10h70.9c5.5 0 10-4.5 10-10s-4.4-10-10-10zm0 40h-70.9c-5.5 0-10 4.5-10 10s4.5 10 10 10h70.9c5.5 0 10-4.5 10-10s-4.4-10-10-10zM143 134h-30.5c-5.5 0-10 4.5-10 10s4.5 10 10 10H143c5.5 0 10-4.5 10-10s-4.5-10-10-10z"></path>
		<path d="M224 136c5.5 0 10-4.5 10-10V40c0-22.1-17.9-40-40-40h-92C80 0 62 17.9 62 40c-22.1 0-40 17.9-40 40v136c0 22.1 17.9 40 40 40h97c22.1 0 40-17.9 40-40v-.3c19.7-2.5 35-19.3 35-39.7 0-5.5-4.5-10-10-10s-10 4.5-10 10c0 11-9 20-20 20h-92c-5.3 0-10.4-2.1-14.1-5.9-3.8-3.8-5.9-8.8-5.9-14.1V40c0-11 9-20 20-20h92c11 0 20 9 20 20v86c0 5.5 4.5 10 10 10zm-122 80h77c0 11-9 20-20 20H62c-11 0-20-9-20-20V80c0-11 9-20 20-20v116c0 10.7 4.2 20.7 11.7 28.3 7.6 7.6 17.6 11.7 28.3 11.7z"></path>
	</symbol>
	<symbol id="document" viewBox="0 0 256 256">
		<path d="M219.5 176c5.5 0 10-4.5 10-10V40c0-22.1-17.9-40-40-40h-123c-22.1 0-40 17.9-40 40v176c0 22.1 17.9 40 40 40h123c22.1 0 40-17.9 40-40 0-5.5-4.5-10-10-10s-10 4.5-10 10c0 11-9 20-20 20h-123c-11 0-20-9-20-20V40c0-11 9-20 20-20h123c11 0 20 9 20 20v126c0 5.5 4.5 10 10 10z"></path>
		<path d="M179.5 60h-103c-5.5 0-10 4.5-10 10s4.5 10 10 10h103c5.5 0 10-4.5 10-10s-4.5-10-10-10zm0 40h-103c-5.5 0-10 4.5-10 10s4.5 10 10 10h103c5.5 0 10-4.5 10-10s-4.5-10-10-10zM139 140H76.5c-5.5 0-10 4.5-10 10s4.5 10 10 10H139c5.5 0 10-4.5 10-10s-4.4-10-10-10z"></path>
	</symbol>
	<symbol id="email" viewBox="0 0 256 256">
		<path d="M246 145.8c5.5 0 10-4.5 10-10V70.2c0-22.1-17.9-40-40-40H40c-22.1 0-40 17.9-40 40v115.5c0 22.1 17.9 40 40 40h176c22.1 0 40-17.9 40-40 0-5.5-4.5-10-10-10s-10 4.5-10 10c0 11-9 20-20 20H40c-11 0-20-9-20-20V72.4l86.9 54c6.5 4.1 13.8 6.1 21.1 6.1s14.6-2 21.1-6.1l86.9-54v63.4c0 5.5 4.5 10 10 10zm-107.4-36.4c-6.5 4.1-14.6 4.1-21.1 0L28.3 54c3.3-2.4 7.3-3.8 11.7-3.8h176c4.3 0 8.4 1.4 11.7 3.8l-89.1 55.4z"></path>
	</symbol>
	<symbol id="facebook" viewBox="0 0 256 256">
		<path d="M246 176c5.5 0 10-4.5 10-10V40c0-22.1-17.9-40-40-40H40C17.9 0 0 17.9 0 40v176c0 22.1 17.9 40 40 40h176c22.1 0 40-17.9 40-40 0-5.5-4.5-10-10-10s-10 4.5-10 10c0 11-9 20-20 20h-52.5v-87H186c5.5 0 10-4.5 10-10s-4.5-10-10-10h-22.5v-27.5c0-11 9-20 20-20h5c5.5 0 10-4.5 10-10s-4.5-10-10-10h-5c-22.1 0-40 17.9-40 40V129H121c-5.5 0-10 4.5-10 10s4.5 10 10 10h22.5v87H40c-11 0-20-9-20-20V40c0-11 9-20 20-20h176c11 0 20 9 20 20v126c0 5.5 4.5 10 10 10z"></path>
	</symbol>
	<symbol id="github" viewBox="0 0 256 256">
		<path d="M218.4 38.1C194.3 13.5 162.1 0 128 0 94 0 61.5 13.7 37.5 38.1 13.3 62.7 0 95.4 0 130.2s13.3 67.5 37.5 92.1c15.7 16 34.9 27.4 55.8 33.3 7.9 2.3 15.8-3.9 15.8-12.3v-43.9c0-7.2 1.7-9.6 4.4-13.3.6-.8 3.8-5.6 6.4-9.5 1.6-2.5.2-5.9-2.7-6.4l-6.7-1.1c-26-3.9-36.5-17.6-40.6-28.4-5.3-14.4-2.4-32.3 6.9-43.6 1.8-2.2 3.2-5.8 1.9-9.6-1.3-4.4-1.6-10.6-1.2-15 .1-1.7 1.8-2.8 3.3-2.2 4.5 1.6 9.1 4.5 13.2 7.1.9.6 1.8 1.2 2.8 1.8 2.6 1.6 8.9 1.3 10 .8s11.7-2.9 21.2-2.9c7.2 0 20.2 2.8 22.3 3.3 2.1.5 5.1.8 8.6-1.3.8-.6 1.7-1.1 2.6-1.7 4.3-2.8 8.8-5.6 13.3-7.2 1.5-.6 3.2.6 3.3 2.2.4 4.5.2 10.7-1.2 15-1.3 3.8.1 7.5 1.9 9.6 9.3 11.3 12.2 29.2 6.9 43.6-4.1 10.8-14.5 24.5-40.6 28.4l-6.6 1.1c-2.9.5-4.4 3.9-2.7 6.4 2.6 4 5.7 8.7 6.4 9.5 2.6 3.7 4.4 6.1 4.4 13.3v44.1c0 8.4 7.8 14.6 15.8 12.3 20.9-5.9 40.1-17.3 55.9-33.4 24.2-24.6 37.5-57.3 37.5-92.1.1-34.8-13.2-67.5-37.4-92.1zm-51.7 196.8c-1.5.6-3.1-.6-3.1-2.2v-33.3c0-5.5-.7-10.2-2.3-14.3-.4-1 .1-2 1.1-2.3 19.4-6.3 33-18.7 39.3-35.9 7-19.2 4-41.7-7.5-57.8 2.1-10.3 1.7-24.6-3.2-31.6-2.5-3.5-5.5-5.4-10.2-5.4-4.8 0-28.1 11.4-28.1 11.4-8-2.1-16.3-3.2-24.5-3.2-8 0-16.3 1.1-24.1 3.2-9-5.6-24.8-11.4-28.7-11.4S68 54 65.5 57.5c-5.5 7.8-4.9 23.2-3.2 31.6-5.6 7.8-9.3 17.2-10.7 27.4-1.4 10.5-.3 21 3.1 30.4 6.3 17.3 19.8 29.6 39.3 35.9.9.4 1.4 1.4 1.1 2.4-.9 2.5-1.5 7.9-1.9 10.9-3.7 1.2-6.6 1.4-9.2.6-3.1-1-5.6-3.2-7.8-6.9-2.6-4.5-9.8-10.1-16.3-11.7-6.5-1.6-11.3 1.9-10.7 7.8.2 2.7 1.9 5.1 4.3 6.3 3 1.6 6.9 3.9 8.3 6.4 4.3 7.5 10.2 12.4 17.5 14.6 4.4 1.4 8.8 1.6 13.6.8v18.8c0 1.7-1.6 2.8-3.1 2.2-41.8-16.1-71.4-57-71.4-104.8C18 69 68.1 18.2 128.1 18.3c60.5.1 109.8 50.2 109.8 111.9 0 47.8-29.6 88.7-71.2 104.7z"></path>
	</symbol>
	<symbol id="instagram" viewBox="0 0 256 256">
		<path d="M181.6 0H74.4C33.4 0 0 33.4 0 74.4v107.3c0 41 33.4 74.4 74.4 74.4h107.3c11.8 0 23.1-2.7 33.6-8 10-5.1 18.9-12.5 25.6-21.4 3.3-4.4 2.5-10.7-1.9-14-4.4-3.3-10.7-2.5-14 1.9-10.4 13.7-26.2 21.5-43.3 21.5H74.4c-30 0-54.4-24.4-54.4-54.4V74.4C20 44.4 44.4 20 74.4 20h107.3c30 0 54.4 24.4 54.4 54.4v97.1c0 5.5 4.5 10 10 10s10-4.5 10-10V74.4C256 33.4 222.6 0 181.6 0z"></path>
		<path d="M128 59c-38 0-69 31-69 69s31 69 69 69 69-31 69-69-31-69-69-69zm0 118c-27 0-49-22-49-49s22-49 49-49 49 22 49 49-22 49-49 49z"></path>
		<circle cx="198" cy="58" r="10"></circle>
	</symbol>
	<symbol id="menu" viewBox="0 0 256 256">
		<path d="M219 0H37C16.6 0 0 16.6 0 37s16.6 37 37 37h182c20.4 0 37-16.6 37-37S239.4 0 219 0zm0 54H37c-9.4 0-17-7.6-17-17s7.6-17 17-17h182c9.4 0 17 7.6 17 17s-7.6 17-17 17zm0 37H37c-20.4 0-37 16.6-37 37s16.6 37 37 37h182c20.4 0 37-16.6 37-37s-16.6-37-37-37zm0 54H37c-9.4 0-17-7.6-17-17s7.6-17 17-17h182c9.4 0 17 7.6 17 17s-7.6 17-17 17zm0 37H37c-20.4 0-37 16.6-37 37s16.6 37 37 37h132c5.5 0 10-4.5 10-10s-4.5-10-10-10H37c-9.4 0-17-7.6-17-17s7.6-17 17-17h182c9.4 0 17 7.6 17 17s-7.6 17-17 17c-5.5 0-10 4.5-10 10s4.5 10 10 10c20.4 0 37-16.6 37-37s-16.6-37-37-37z"></path>
	</symbol>
	<symbol id="menu-outline" viewBox="0 0 256 256">
		<path d="M246 203.3H10c-5.5 0-10 4.5-10 10s4.5 10 10 10h236c5.5 0 10-4.5 10-10 0-5.6-4.5-10-10-10zm0-85.3H10c-5.5 0-10 4.5-10 10s4.5 10 10 10h236c5.5 0 10-4.5 10-10s-4.5-10-10-10zm0-85.2H10c-5.5 0-10 4.5-10 10s4.5 10 10 10h236c5.5 0 10-4.5 10-10 0-5.6-4.5-10-10-10z"></path>
	</symbol>
	<symbol id="next" viewBox="0 0 256 256">
		<path d="M198.2 106.8l-98-98C88.5-2.9 69.5-2.9 57.8 8.8 52.1 14.4 49 22 49 30v196c0 8 3.1 15.5 8.8 21.2C63.6 253 71.3 256 79 256c7.7 0 15.4-2.9 21.2-8.8 3.9-3.9 3.9-10.2 0-14.1-3.9-3.9-10.2-3.9-14.1 0-3.9 3.9-10.2 3.9-14.1 0-1.9-1.9-2.9-4.4-2.9-7.1V30c0-2.7 1-5.2 2.9-7.1 3.9-3.9 10.2-3.9 14.1 0l98 98c3.9 3.9 3.9 10.2 0 14.1l-63.4 63.4c-3.9 3.9-3.9 10.2 0 14.1 3.9 3.9 10.2 3.9 14.1 0l63.4-63.4c11.7-11.6 11.7-30.6 0-42.3z"></path>
	</symbol>
	<symbol id="back" viewBox="0 0 256 256">
		<path d="M197 186c5.5 0 10-4.5 10-10V30c0-8-3.1-15.5-8.8-21.2-11.7-11.7-30.7-11.7-42.4 0l-98 98c-11.7 11.7-11.7 30.7 0 42.4l98 98c5.8 5.8 13.5 8.8 21.2 8.8 7.7 0 15.4-2.9 21.2-8.8 5.7-5.7 8.8-13.2 8.8-21.2 0-5.5-4.5-10-10-10s-10 4.5-10 10c0 2.7-1 5.2-2.9 7.1-3.9 3.9-10.2 3.9-14.1 0l-98-98c-3.9-3.9-3.9-10.2 0-14.1l98-98c3.9-3.9 10.2-3.9 14.1 0 1.9 1.9 2.9 4.4 2.9 7.1v146c0 5.4 4.5 9.9 10 9.9z"></path>
	</symbol>
	<symbol id="star" viewBox="0 0 256 256">
		<path d="M254.6 96.9c-3.8-11.6-14.1-19.1-26.2-19.1h-51.2c-3.4 0-6.2-2-7.2-5l-15.8-49c-3.7-11.6-14-19.1-26.2-19.1s-22.5 7.5-26.2 19.1L86 72.8c-1 3-3.8 5-7.2 5H27.6c-12.1 0-22.4 7.5-26.2 19.1-3.8 11.7.1 23.8 10 31L52.8 158c2.7 1.9 3.8 5.3 2.7 8.5l-15.8 48.7c-3.8 11.6.2 23.7 10 30.8 4.9 3.6 10.6 5.4 16.2 5.4s11.3-1.8 16.2-5.4l41.4-30.1c2.7-1.9 6.2-1.9 8.9 0l41.4 30.1c9.8 7.2 22.6 7.2 32.4 0 9.8-7.2 13.8-19.3 10-30.8l-10.8-33.3c-1.7-5.3-7.3-8.1-12.6-6.4-5.3 1.7-8.1 7.3-6.4 12.6l10.8 33.3c1.6 4.9-1.7 7.7-2.7 8.5-1 .8-4.8 3-8.9 0l-41.4-30.1c-9.7-7-22.7-7-32.4 0l-41.4 30.1c-4.1 3-7.9.8-8.9 0s-4.3-3.6-2.7-8.5l15.8-48.7c3.7-11.4-.3-23.8-10-30.8l-41.4-30.1c-4.2-3-3.1-7.4-2.7-8.6.4-1.2 2.1-5.3 7.2-5.3h51.2c12 0 22.6-7.6 26.2-18.8l15.8-49c1.6-4.9 5.9-5.2 7.2-5.2s5.6.4 7.2 5.2l15.8 49c3.7 11.2 14.2 18.8 26.2 18.8h51.2c5.1 0 6.8 4.1 7.2 5.3.4 1.3 1.4 5.6-2.7 8.6l-28.2 20.5c-4.5 3.2-5.5 9.5-2.2 14 3.2 4.5 9.5 5.5 14 2.2l28.2-20.5c9.6-7.3 13.6-19.5 9.8-31.1z"></path>
	</symbol>
	<symbol id="user" viewBox="0 0 256 256">
		<path d="M255.4 219.4c-1.1-5.4-6.4-8.9-11.8-7.8-5.4 1.1-8.9 6.4-7.8 11.8.6 3.1-.1 6.3-2.1 8.8-1.2 1.4-3.7 3.8-8 3.8H30.3c-4.3 0-6.8-2.4-8-3.8-2-2.5-2.8-5.6-2.1-8.8 10.4-49.8 54.3-86.3 105.1-87.5.9 0 1.8.1 2.7.1.9 0 1.8 0 2.7-.1 35.8.9 68.8 19 88.8 48.8 3.1 4.6 9.3 5.8 13.9 2.7 4.6-3.1 5.8-9.3 2.7-13.9-16.4-24.5-40.2-42.3-67.4-51.2C185.3 110 196 90.2 196 68c0-37.5-30.5-68-68-68S60 30.5 60 68c0 22.3 10.7 42 27.3 54.5-15.2 5-29.4 12.8-41.9 23-22.9 18.8-38.8 45-44.8 73.9-1.9 9 .4 18.3 6.2 25.5 5.8 7.1 14.4 11.2 23.5 11.2h195.3c9.2 0 17.7-4.1 23.5-11.2 5.9-7.2 8.1-16.5 6.3-25.5zM80 68c0-26.5 21.5-48 48-48s48 21.5 48 48c0 25.7-20.2 46.7-45.6 47.9h-4.8C100.2 114.7 80 93.7 80 68z"></path>
	</symbol>
	<symbol id="website" viewBox="0 0 256 256">
		<path d="M59.5 90.5c-11 0-20 9-20 20V186c0 11 9 20 20 20h38c11 0 20-9 20-20v-75.5c0-11-9-20-20-20h-38zm38 95.5h-38v-75.5h38V186zm118-37.5c0 5.5-4.5 10-10 10h-58c-5.5 0-10-4.5-10-10s4.5-10 10-10h58c5.5 0 10 4.5 10 10zm0 38c0 5.5-4.5 10-10 10h-58c-5.5 0-10-4.5-10-10s4.5-10 10-10h58c5.5 0 10 4.5 10 10zm0-76c0 5.5-4.5 10-10 10h-58c-5.5 0-10-4.5-10-10s4.5-10 10-10h58c5.5 0 10 4.5 10 10zM226 10H30C13.5 10 0 23.5 0 40v166c0 22.1 17.9 40 40 40h176c22.1 0 40-17.9 40-40 0-5.5-4.5-10-10-10s-10 4.5-10 10c0 11-9 20-20 20H40c-11 0-20-9-20-20V70.5h216V156c0 5.5 4.5 10 10 10s10-4.5 10-10V40c0-16.5-13.5-30-30-30zm-40.5 20c5.5 0 10 4.5 10 10s-4.5 10-10 10-10-4.5-10-10 4.5-10 10-10zm50 10c0 5.5-4.5 10-10 10s-10-4.5-10-10 4.5-10 10-10 10 4.5 10 10zM20 40c0-5.5 4.5-10 10-10h127.2c-1.1 3.1-1.7 6.5-1.7 10 0 3.7.7 7.2 1.9 10.5H20V40z"></path>
	</symbol>
	<symbol id="earth" viewBox="0 0 256 256">
		<path d="M218.6 37.5C194.5 13.3 162.4 0 128.2 0h-.5C93.6 0 61.5 13.3 37.4 37.5 13.3 61.7 0 93.8 0 128s13.3 66.3 37.4 90.5c24.1 24.2 56.2 37.5 90.3 37.5h.5c21.8 0 43.3-5.6 62.3-16.2 4.8-2.7 6.5-8.8 3.8-13.6-2.7-4.8-8.8-6.5-13.6-3.8-2.8 1.6-5.6 3-8.5 4.3 2.1-3.3 4.1-6.9 6-10.7 10.6-21.2 16.9-48.6 18.1-77.9h39.2c-1.6 16.9-7.1 33.2-16.2 47.7-2.9 4.7-1.6 10.8 3.1 13.8 1.7 1.1 3.5 1.6 5.3 1.6 3.3 0 6.5-1.6 8.4-4.7 12.9-20.4 19.7-44.1 19.7-68.3.2-34.4-13.1-66.5-37.2-90.7zM83 29.8c-2 3.2-4 6.7-5.8 10.3-2.1 4.2-4 8.7-5.8 13.3-6.2-1.2-12-2.6-17.4-4.1 8.5-8 18.3-14.6 29-19.5zm2.2 46.1c10.4 1.3 21.3 2.2 32.6 2.5V118H79.1c.6-14.9 2.7-29.2 6.1-42.1zM39.7 65.7c7.7 2.7 16.4 5 25.7 6.9-3.5 14.1-5.7 29.4-6.3 45.3H20.4c1.8-19.2 8.7-37.1 19.3-52.2zM20.4 138h38.7c.6 15.7 2.7 30.9 6.2 44.9-9.4 1.9-18.1 4.3-25.8 7-10.5-15-17.3-32.7-19.1-51.9zm33.2 68.3c5.5-1.6 11.4-3 17.6-4.2 1.8 4.8 3.8 9.5 6 13.8 1.8 3.7 3.8 7.1 5.8 10.3-10.9-5-20.8-11.7-29.4-19.9zm64.2 27.2c-8.2-4.2-16.2-13.3-22.7-26.5-1.3-2.6-2.5-5.2-3.6-8 8.4-1 17.3-1.6 26.3-1.8v36.3zm0-56.4c-11.3.3-22.3 1.2-32.7 2.5-3.3-12.8-5.4-26.9-6-41.6h38.7v39.1zm0-118.7c-8.9-.3-17.7-.9-26.1-1.9 1.1-2.6 2.2-5.1 3.4-7.5 6.6-13.2 14.5-22.3 22.7-26.5v35.9zm19.9-35.9c8.2 4.2 16.2 13.3 22.7 26.5 1.2 2.4 2.3 4.9 3.4 7.5-8.4 1-17.2 1.6-26.1 1.8V22.5zM160.5 207c-6.6 13.2-14.5 22.3-22.7 26.5v-36.3c9 .3 17.8.9 26.3 1.9-1.2 2.7-2.4 5.3-3.6 7.9zm10-27.4c-10.5-1.3-21.5-2.2-32.7-2.5V138h38.7c-.7 14.7-2.7 28.8-6 41.6zM137.7 118V78.4c11.3-.3 22.2-1.1 32.6-2.5 3.4 12.9 5.5 27.2 6.1 42.1h-38.7zm40.6-77.9c-1.9-3.8-3.9-7.4-6-10.7 10.9 4.9 20.9 11.6 29.6 19.8-5.5 1.6-11.5 3-17.8 4.2-1.7-4.6-3.7-9.1-5.8-13.3zm18.1 77.9c-.6-15.9-2.8-31.2-6.3-45.3 9.5-1.9 18.2-4.3 26.1-7.1 10.7 15.1 17.6 33 19.4 52.4h-39.2z"></path>
	</symbol>
	<symbol id="search" viewBox="0 0 256 256">
		<path d="M182.7,160.8h-11.6l-4.1-4c14.8-17.2,23-39.2,23-61.9c0-52.5-42.6-95.1-95.1-95.1S-0.3,42.3-0.3,94.9S42.3,190,94.9,190 c23.6,0,45.2-8.6,61.9-23l4,4.1v11.6l73.2,73l21.8-21.8L182.7,160.8z M94.9,160.8c-36.4,0-65.9-29.4-65.9-65.9S58.4,29,94.9,29 s65.9,29.4,65.9,65.9S131.3,160.8,94.9,160.8z"/>
	</symbol>
	<symbol id="lock" viewBox="0 0 256 256" >
		<path class="st0" d="M76.8,96.3c0-55.1,27.4-62.2,51.2-62.2s51.2,7.1,51.2,62.2v23.2H76.8V96.3z M213.3,119.5V96.3 C213.3,12.5,159.9,0,128,0S42.7,12.5,42.7,96.3v23.2H25.6V256h204.8V119.5H213.3z"/>
	</symbol>
	<symbol id="calc" viewBox="0 0 256 256">
		<path d="M227.5,176c5.5,0,10-4.5,10-10V40c0-22.1-17.9-40-40-40h-139c-22.1,0-40,17.9-40,40v176c0,22.1,17.9,40,40,40h139
		c22.1,0,40-17.9,40-40c0-5.5-4.5-10-10-10s-10,4.5-10,10c0,11-9,20-20,20h-139c-11,0-20-9-20-20V40c0-11,9-20,20-20h139
		c11,0,20,9,20,20v126C217.5,171.5,222,176,227.5,176z"/>
		<path d="M187.5,196h-40c-5.5,0-10,4.5-10,10s4.5,10,10,10h40c5.5,0,10-4.5,10-10S193,196,187.5,196z"/>
		<path d="M68.5,120c-5.5,0-10,4.5-10,10c0,5.5,4.5,10,10,10S79,135.5,79,130C79,124.5,74,120,68.5,120z"/>
		<circle cx="108.5" cy="130" r="10"/>
		<circle cx="148" cy="130" r="10"/>
		<path d="M68.5,158c-5.5,0-10,4.5-10,10s4.5,10,10,10S79,173.5,79,168S74,158,68.5,158z"/>
		<circle cx="108.5" cy="168" r="10"/>
		<circle cx="148" cy="168" r="10"/>
		<circle cx="187.5" cy="130" r="10"/>
		<circle cx="68.5" cy="206" r="10"/>
		<circle cx="187.5" cy="168" r="10"/>
		<circle cx="108" cy="206" r="10"/>
		<path d="M187.5,40h-119c-5.5,0-10,4.5-10,10v40c0,5.5,4.5,10,10,10h119c5.5,0,10-4.5,10-10V50C197.5,44.5,193,40,187.5,40z
		 M177.5,80h-99V60h99V80z"/>
	</symbol>	
	<symbol id="broom" viewBox="0 0 256 256" >
		<path d="M256,11.1c0-3-1.2-5.8-3.3-7.9c-2.1-2.1-4.9-3.3-7.9-3.3c-3,0-5.8,1.2-7.9,3.3l-95,95l-13.7-13.7c-3.5-3.5-8.1-5.4-13-5.4 c-4.9,0-9.5,1.9-13,5.4l-19.1,19.1c-4.1,3.4-34.7,27.4-75.4,40.1c-4.5,1.4-7.7,5.5-7.8,10.3c-0.1,4,1.2,26.1,38.4,63.4 c36.6,36.6,58.9,38.5,63,38.5c0.1,0,0.3,0,0.4,0c4.7-0.1,8.9-3.3,10.3-7.8c12.6-40.5,36.7-71.2,40.1-75.4l19.1-19.1 c3.5-3.5,5.4-8.1,5.4-13c0-4.9-1.9-9.5-5.4-13L157.7,114l95-95C254.8,16.9,256,14.1,256,11.1z M91.4,221.2c2.1-2.1,3.3-4.9,3.3-7.9 c0-3-1.2-5.8-3.3-7.9c-4.3-4.3-11.4-4.3-15.7,0l-8.4,8.4c-1.7-1.4-3.4-2.9-5.1-4.4l22.4-22.4c2.1-2.1,3.3-4.9,3.3-7.9 c0-3-1.2-5.8-3.3-7.9c-2.1-2.1-4.9-3.3-7.9-3.3s-5.8,1.2-7.9,3.3l-22.4,22.4c-1.5-1.7-3-3.4-4.4-5.1l8.4-8.4 c2.1-2.1,3.3-4.9,3.3-7.9c0-3-1.2-5.8-3.3-7.9c-4.3-4.3-11.4-4.3-15.7,0l-5.9,5.9c-1-1.7-1.9-3.4-2.7-5c-0.6-1.3-1.2-2.5-1.7-3.7 c30.6-11.1,54.5-27,65.7-35.2l39.4,39.4c-8.2,11.2-24.1,35.1-35.2,65.7c-1.2-0.5-2.4-1.1-3.7-1.7c-1.6-0.8-3.3-1.7-5-2.7L91.4,221.2 z M152.9,140.7l-8.6,8.6l-37.6-37.6l8.6-8.6L152.9,140.7z"/>
		<path d="M76.1,53h-5.6v-5.6c0-6.1-5-11.1-11.1-11.1c-6.1,0-11.1,5-11.1,11.1V53h-5.6c-6.1,0-11.1,5-11.1,11.1 c0,6.1,5,11.1,11.1,11.1h5.6v5.6c0,6.1,5,11.1,11.1,11.1c6.1,0,11.1-5,11.1-11.1v-5.6h5.6c6.1,0,11.1-5,11.1-11.1 C87.3,58,82.3,53,76.1,53z"/>
		<path d="M229.8,177.1h-5.6v-5.6c0-6.1-5-11.1-11.1-11.1s-11.1,5-11.1,11.1v5.6h-5.6c-6.1,0-11.1,5-11.1,11.1s5,11.1,11.1,11.1h5.6 v5.6c0,6.1,5,11.1,11.1,11.1s11.1-5,11.1-11.1v-5.6h5.6c6.1,0,11.1-5,11.1-11.1S236,177.1,229.8,177.1z"/>
		<path d="M232.7,85.4c-3.4-2.7-8.3-3.1-12.2-1c-4.6,2.5-6.8,7.9-5.3,13c1.3,4.5,5.6,7.8,10.4,7.9c0.1,0,0.2,0,0.3,0 c4.6,0,8.9-3,10.5-7.4C237.9,93.5,236.4,88.3,232.7,85.4z"/>
		<path d="M140.8,42.9c-0.8-4.8-4.7-8.6-9.5-9.2c-4.8-0.7-9.6,2-11.6,6.4c-2.1,4.6-0.8,10,3.1,13.2c2,1.7,4.5,2.5,7.1,2.5 c2.1,0,4.3-0.6,6.2-1.8C139.6,51.5,141.5,47.2,140.8,42.9z"/>
		<path d="M175.9,218.2c-0.9-4.6-4.8-8.3-9.5-8.9c-4.7-0.6-9.4,2-11.4,6.3c-2,4.3-1.1,9.4,2.3,12.7c2.1,2.1,4.9,3.1,7.8,3.1 c1.7,0,3.5-0.4,5.1-1.2C174.5,228,176.9,223,175.9,218.2z"/>
	</symbol>
	<symbol id="goodvar" viewBox="0 0 256 256">
		<style type="text/css">.st0{opacity:.9;} .st1{fill:#187de4;}</style>
		<g class="st0">
			<path class="st1" d="M207.2,67.2h-2l0,0l0,0c-1.7-4.7-3.8-9.2-6.1-13.4l0,0c3.9-9.3,6-19.5,6-30.2c0-1.5-0.8-14.6-1.4-14.5
				C203,4.9,197.6,3.5,195,7c-6,7.9-13.3,14.6-21.4,19.9l0,0c-8.8-5.4-19-9.1-30.8-10.8v-6c0-2.7-2.3-5-5-5H118c-2.7,0-5,2.3-5,5v6
				l0,0l0,0c-4.6,0.6-10.2,1.8-16.6,4c-5.2,1.8-9.9,4.1-14.3,6.8l0,0c-8-5.3-15.3-12-21.3-19.9c-2.5-3.5-8-2.3-8.8,2
				c-0.9,4.7-1.4,9.7-1.4,14.5c0,10.7,2.2,20.9,6,30.2l0,0c-2.4,4.2-4.4,8.7-6.1,13.4l0,0h-2c-2.8,0-5,2.2-5,5v25.6v4.4
				c0,2.8,2.3,5,5,5l0,0H72h111.6h23.5l0,0c2.7,0,5-2.3,5-5v-4.4V72.2C212.2,69.5,210,67.2,207.2,67.2z"/>
			<path class="st1" d="M95.8,210.4c-5.7-3-11.4-11-14.7-18.6c-5.5,2.5-10.9,5.5-16,8.9c7.9,13.4,11.1,33.9-2,50.3h90.4
				C126.5,247.3,102.2,229.8,95.8,210.4z"/>
		</g>
		<g>
			<path d="M230.2,236.1c-10.4-18.1-25.1-32.9-42.8-43.3c1.1,0,2.1-0.2,3.1-0.5c11.9-3.5,18.7-27,21-50.4c11.7-2,20.5-12.3,20.5-24.6
				c0-10-5.9-19-14.9-22.9V72.2c0-5-3.7-9.1-8.4-9.9c-1.2-3.1-2.6-6.1-4.1-8.9c5.5-14.4,6.9-30,4.1-45.3c-0.7-4-3.7-7-7.5-7.9
				c-3.9-0.9-7.8,0.6-10.1,3.8c-5.1,6.5-10.9,12.2-17.5,16.9c-7.7-4.3-16.2-7.4-25.7-9.1V10c0-5.5-4.5-10-9.9-10h-19.9
				c-5.4,0-9.9,4.5-9.9,10v1.8c-9.3,1.8-17.9,4.8-25.7,9.1C75.8,16.2,69.8,10.6,64.9,4c-2.4-3.2-6.3-4.7-10.1-3.8c-3.8,1-6.8,4-7.5,8
				c-2.9,15.3-1.5,30.9,4.1,45.3c-1.5,2.8-2.9,5.8-4.1,8.9c-4.8,0.7-8.4,4.9-8.4,9.9v22.1c-9,3.8-14.9,12.8-14.9,22.8
				c0,12.3,8.9,22.6,20.5,24.6c2.3,23.4,9.1,46.9,21,50.4c0.9,0.3,2,0.4,3.1,0.5c-17.6,10.3-32,24.8-42.4,42.7
				c-2.7,4-2.9,9.2-0.6,13.5c2.3,4.4,6.7,7.1,11.6,7.1H219l0,0c4.8,0,9-2.5,11.4-6.6C232.6,245.2,232.6,240.2,230.2,236.1L230.2,236.1
				z M222.1,117.2c0,6.5-4.2,12.1-9.9,14.1c0.2-4.7,0.2-9.2,0-13.5v-7c2-1.2,3.6-3.1,4.4-5.3C220,108.4,222.1,112.6,222.1,117.2z
				 M198.9,10.2C198.9,10.2,198.9,10.1,198.9,10.2c2.1,10.8,1.7,21.9-1.1,32.4c-3.7-5-7.8-9.4-12.4-13.3c-1-0.8-2-1.6-3.1-2.4
				C188.5,22.1,194,16.5,198.9,10.2L198.9,10.2z M197.9,62.2h-50.1V22.1C170.8,26.9,188,40.6,197.9,62.2z M137.8,10.1v52.2H118V10.1
				H137.8z M108.1,62.2h-2.5c-2.8,0-5,2.2-5,5c0,2.8,2.2,5,5,5h101.6v30l0,0H48.7v-30h12.4c2.8,0,5-2.2,5-5s-2.2-5-5-5H58
				c9.9-21.6,27-35.3,50.1-40.2V62.2z M181.3,114.2c-0.1,2.3-3.3,10.7-4.8,14.7c-1.2,3.1-2.2,5.7-2.7,7.4c-1,3.2-3.2,7.5-7.5,9.2
				c-5.2,2-12.6,0.3-21.5-4.9c-1.1-0.7-7.8-4.6-16.9-4.6s-15.8,3.9-16.9,4.6c-8.7,5.1-16.6,6.8-21.8,4.8c-3.4-1.3-5.7-4.3-7.2-9.1
				c-1.2-4-2.7-8.1-4.1-11.7c-1.4-3.7-3.4-8.8-3.4-10.3c0.1-0.3,0.3-1,0.7-2.1h105.3C181,113.2,181.2,113.9,181.3,114.2L181.3,114.2z
				 M57,10.1C57,10.1,57,10.2,57,10.1c4.9,6.4,10.4,12,16.6,16.7c-1,0.8-2.1,1.6-3,2.4c-4.7,3.9-8.7,8.4-12.4,13.3
				C55.3,32.1,54.9,21,57,10.1z M33.8,117.2c0-4.6,2.1-8.9,5.5-11.7c0.8,2.2,2.4,4.1,4.4,5.3v7c-0.2,4.2-0.2,8.8,0,13.5
				C38,129.3,33.8,123.8,33.8,117.2L33.8,117.2z M68.2,182.7c-1.9-0.6-6.5-5.6-10.3-20.8c-2-7.7-3.3-16.4-4-25.2c0,0,0,0,0-0.1
				c-0.5-6.2-0.6-12.4-0.3-18.5c0-0.1,0-0.1,0-0.2v-5.8h11.3c0,0.2-0.1,0.5-0.1,0.7c-0.5,3.6,1.1,8,3.9,15.4c1.4,3.6,2.9,7.4,3.9,10.9
				v0.1c2.5,7.8,6.8,13,13.1,15.5c10.9,4.3,23.8-1.6,30.4-5.5c0.1,0,0.1-0.1,0.2-0.1c0,0,5-3.1,11.7-3.1c6.7,0,11.6,3.1,11.7,3.1
				s0.1,0.1,0.2,0.1c8.1,4.7,15.4,7.1,21.8,7.1c3,0,5.7-0.5,8.3-1.5c6.3-2.5,11-7.9,13.4-15.5v-0.1c0.4-1.3,1.4-4,2.4-6.8
				c4.2-11.1,5.8-16.2,5.4-19.5c0-0.2-0.1-0.5-0.1-0.7h11.2v5.8c0,0.1,0,0.1,0,0.2c0.3,6,0.1,12.3-0.3,18.5c0,0,0,0,0,0.1
				c-0.7,8.8-2,17.5-4,25.2c-3.9,15.1-8.4,20.2-10.3,20.8c-1.1,0.3-3.4-1.4-5.9-6c-1.2-2.1-3.7-3-5.8-2.2c-2.3,0.8-3.7,3-3.3,5.4
				c0.7,5.2-2.8,11.5-5.4,15.7c-2.4,3.9-6.1,9.9-11,11c-3.4,0.7-5.7-5.3-6.8-8.9c-0.7-2.4-3.1-3.8-5.4-3.5c-2.4,0.4-4.3,2.5-4.3,4.9
				c0,1.9-0.6,6.7-2.7,10.7c-2.2,4-5.1,6-9,6s-6.8-2-9-6c-2.2-4-2.7-8.7-2.7-10.7c0-2.5-1.8-4.6-4.3-4.9c-2.5-0.4-4.8,1.1-5.4,3.5
				c-1.1,3.6-3.5,9.6-6.8,8.9c-5-1.1-8.8-7.3-11.2-11.3c-2.5-4.2-5.8-10.3-5.2-15.4c0.3-2.4-1.1-4.6-3.3-5.4c-2.3-0.8-4.7,0.2-5.8,2.2
				C71.6,181.3,69.3,183,68.2,182.7L68.2,182.7z M78.9,198.4c0.4,0.7,0.7,1.3,1.1,2c2.3,3.9,6.4,9.9,11.8,13.4
				c4.9,12.8,16.2,24.3,30.8,32.2H72.4c7.5-15.1,5.1-31.6-0.6-43.6C74.1,201,76.5,199.7,78.9,198.4z M37.1,246c-1.8,0-2.6-1.2-2.9-1.7
				c-0.2-0.4-0.9-1.9,0.2-3.4c0.1-0.1,0.1-0.2,0.2-0.3c7.4-12.8,17.2-23.8,28.8-32.6c4.7,10.8,6.1,25.5-2.7,37.9L37.1,246z
				 M221.7,244.3c-0.3,0.5-1.1,1.6-2.8,1.6l0,0h-64.8c-21.2-2.9-41.2-15.1-50-29.8c1.8-0.5,3.7-1.5,5.4-3.3c3.2,7,9.1,12.9,18.5,12.9
				c9.5,0,15.4-6,18.5-12.9c4.3,4.1,8.8,4.1,11.8,3.5c8.2-1.8,14.6-10.8,17.6-16c0.4-0.6,0.7-1.3,1.1-2c18.7,9.6,34.1,24.3,44.6,42.7
				C222.5,242.6,221.9,243.9,221.7,244.3L221.7,244.3z"/>
			<ellipse cx="152.7" cy="127.2" rx="7.4" ry="10"/>
			<ellipse cx="103.2" cy="127.2" rx="7.4" ry="10"/>
			<path d="M127.9,176c8.9,0,16.8-6.1,19.1-14.8c0.7-2.7-0.9-5.4-3.5-6.1c-2.7-0.7-5.4,0.9-6,3.5c-1.2,4.4-5.1,7.4-9.6,7.4
				c-4.6,0-8.4-3-9.6-7.4c-0.7-2.7-3.5-4.3-6-3.5c-2.7,0.7-4.3,3.5-3.5,6.1C111.1,169.9,119,176,127.9,176z"/>
			<path d="M127.9,92.2L127.9,92.2c2.8,0,5-2.2,5-5s-2.2-5-5-5s-5,2.2-5,5S125.2,92.2,127.9,92.2L127.9,92.2z"/>
			<path d="M105.6,92.2L105.6,92.2c2.8,0,5-2.2,5-5s-2.2-5-5-5c-2.8,0-5,2.2-5,5S102.9,92.2,105.6,92.2z"/>
			<path d="M83.4,82.2c-2.8,0-5,2.2-5,5s2.2,5,5,5l0,0c2.8,0,5-2.2,5-5C88.3,84.5,86.1,82.2,83.4,82.2z"/>
			<path d="M61.1,82.2c-2.8,0-5,2.2-5,5s2.2,5,5,5l0,0c2.8,0,5-2.2,5-5C66,84.5,63.8,82.2,61.1,82.2z"/>
			<path d="M150.2,92.2L150.2,92.2c2.8,0,5-2.2,5-5s-2.2-5-5-5c-2.8,0-5,2.2-5,5S147.5,92.2,150.2,92.2z"/>
			<path d="M172.5,92.2L172.5,92.2c2.8,0,5-2.2,5-5s-2.2-5-5-5s-5,2.2-5,5S169.8,92.2,172.5,92.2z"/>
			<path d="M194.8,92.2L194.8,92.2c2.8,0,5-2.2,5-5s-2.2-5-5-5s-5,2.2-5,5S192,92.2,194.8,92.2z"/>
			<path d="M127.9,52.4L127.9,52.4c2.8,0,5-2.2,5-5s-2.2-5-5-5s-5,2.2-5,5S125.2,52.4,127.9,52.4L127.9,52.4z"/>
			<path d="M127.9,30L127.9,30c2.8,0,5-2.2,5-5s-2.2-5-5-5s-5,2.2-5,5S125.2,30,127.9,30L127.9,30z"/>
			<path d="M83.4,72.2c2.8,0,5-2.2,5-5s-2.2-5-5-5l0,0c-2.8,0-5,2.2-5,5S80.6,72.2,83.4,72.2z"/>
		</g>
	</symbol>
	<symbol id="loading" viewBox="0 0 256 256" >
		<path d="M128,236.6c-59.9,0-108.6-48.7-108.6-108.6C19.4,68.1,68.1,19.4,128,19.4V0C93.8,0,61.7,13.3,37.5,37.5 C13.3,61.7,0,93.8,0,128c0,34.2,13.3,66.3,37.5,90.5C61.7,242.7,93.8,256,128,256c34.2,0,66.3-13.3,90.5-37.5 c24.2-24.2,37.5-56.3,37.5-90.5h-19.4C236.6,187.9,187.9,236.6,128,236.6z"/>
	</symbol>
	
	<!-- view list  -->
	<view id="alert-view" viewBox="0 0 256 256" />
	<view id="info-view" viewBox="0 256 256 256" />
	<view id="checked-view" viewBox="0 512 256 256" />
	<view id="close-view" viewBox="0 768 256 256" />
	<view id="copy-view" viewBox="0 1024 256 256" />
	<view id="document-view" viewBox="0 1280 256 256" />
	<view id="email-view" viewBox="0 1536 256 256" />
	<view id="facebook-view" viewBox="0 1792 256 256" />
	<view id="github-view" viewBox="0 2048 256 256" />
	<view id="instagram-view" viewBox="0 2304 256 256" />
	<view id="menu-view" viewBox="0 2560 256 256" />
	<view id="menu-outline-view" viewBox="0 2816 256 256" />
	<view id="next-view" viewBox="0 3072 256 256" />
	<view id="back-view" viewBox="0 3328 256 256" />
	<view id="star-view" viewBox="0 3584 256 256" />
	<view id="user-view" viewBox="0 3840 256 256" />
	<view id="website-view" viewBox="0 4096 256 256" />
	<view id="earth-view" viewBox="0 4352 256 256" />
	<view id="search-google" viewBox="0 4608 256 256" />
	<view id="lock-view" viewBox="0 4864 256 256" />
	<view id="calc-view" viewBox="0 5120 256 256" />
	<view id="broom-view" viewBox="0 5376 256 256" />
	<view id="goodvar-view" viewBox="0 5632 256 256" />
	<view id="loading-view" viewBox="0 5888 256 256" />
	<!-- other color  -->
	<view id="search-bing" viewBox="0 6144 256 256" />
	<view id="alert-white" viewBox="0 6400 256 256" />
	<view id="info-white" viewBox="0 6656 256 256" />
	<view id="checked-white" viewBox="0 6912 256 256" />
	<view id="close-white" viewBox="0 7168 256 256" />
	
	<!-- use list  -->
	<use xlink:href="#alert" width="256" height="256" x="0" y="0"></use>
	<use xlink:href="#info" width="256" height="256" x="0" y="256"></use>
	<use xlink:href="#checked" width="256" height="256" x="0" y="512"></use>
	<use xlink:href="#close" width="256" height="256" x="0" y="768"></use>
	<use xlink:href="#copy" width="256" height="256" x="0" y="1024"></use>
	<use xlink:href="#document" width="256" height="256" x="0" y="1280"></use>
	<use xlink:href="#email" width="256" height="256" x="0" y="1536"></use>
	<use xlink:href="#facebook" width="256" height="256" x="0" y="1792"></use>
	<use xlink:href="#github" width="256" height="256" x="0" y="2048"></use>
	<use xlink:href="#instagram" width="256" height="256" x="0" y="2304"></use>
	<use xlink:href="#menu" width="256" height="256" x="0" y="2560"></use>
	<use xlink:href="#menu-outline" width="256" height="256" x="0" y="2816"></use>
	<use xlink:href="#next" width="256" height="256" x="0" y="3072"></use>
	<use xlink:href="#back" width="256" height="256" x="0" y="3328"></use>
	<use xlink:href="#star" width="256" height="256" x="0" y="3584"></use>
	<use xlink:href="#user" width="256" height="256" x="0" y="3840"></use>
	<use xlink:href="#website" width="256" height="256" x="0" y="4096"></use>
	<use xlink:href="#earth" width="256" height="256" x="0" y="4352" fill="#DBDBDB"></use>
	<use xlink:href="#search" width="256" height="256" x="0" y="4608" fill="#4285f4"></use>
	<use xlink:href="#lock" width="256" height="256" x="0" y="4864" fill="#007700"></use>
	<use xlink:href="#calc" width="256" height="256" x="0" y="5120"></use>
	<use xlink:href="#broom" width="256" height="256" x="0" y="5376"></use>
	<use xlink:href="#goodvar" width="256" height="256" x="0" y="5632"></use>
	<use xlink:href="#loading" width="256" height="256" x="0" y="5888"></use>
	<!-- other color  -->
	<use xlink:href="#search" width="256" height="256" x="0" y="6144" fill="#00809D"></use>
	<use xlink:href="#alert" width="256" height="256" x="0" y="6400" fill="#fff"></use>
	<use xlink:href="#info" width="256" height="256" x="0" y="6656" fill="#fff"></use>
	<use xlink:href="#checked" width="256" height="256" x="0" y="6912" fill="#fff"></use>
	<use xlink:href="#close" width="256" height="256" x="0" y="7168" fill="#fff"></use>
</svg>